<?xml version="1.0" encoding="utf-8"?>
<svg xmlns="http://www.w3.org/2000/svg" viewBox="0 0 40 40" width="640" height="640">
  <path fill="#b0c1d4" d="M3,38.5c-0.827,0-1.5-0.673-1.5-1.5v-7c0-0.827,0.673-1.5,1.5-1.5h34c0.827,0,1.5,0.673,1.5,1.5v7 c0,0.827-0.673,1.5-1.5,1.5H3z" />
  <path fill="#66798f" d="M37,29c0.551,0,1,0.449,1,1v7c0,0.551-0.449,1-1,1H3c-0.551,0-1-0.449-1-1v-7c0-0.551,0.449-1,1-1 H37 M37,28H3c-1.105,0-2,0.895-2,2v7c0,1.105,0.895,2,2,2h34c1.105,0,2-0.895,2-2v-7C39,28.895,38.105,28,37,28L37,28z" />
  <path fill="#f78f8f" d="M7.5 32.5A1 1 0 1 0 7.5 34.5A1 1 0 1 0 7.5 32.5Z" />
  <path fill="#c74343" d="M7.5,33C7.776,33,8,33.224,8,33.5S7.776,34,7.5,34S7,33.776,7,33.5S7.224,33,7.5,33 M7.5,32 C6.672,32,6,32.672,6,33.5C6,34.328,6.672,35,7.5,35S9,34.328,9,33.5C9,32.672,8.328,32,7.5,32L7.5,32z" />
  <path fill="none" stroke="#2d3540" d="M13 33.5L34 33.5" />
  <path fill="#4e7ab5" d="M9.928,18.702c0,0,27.464,1.126,28.064-8.554c0.45-7.879-19.06-7.129-19.06-7.129s-0.15,0-0.15,0.15c0,0.075,0.075,0.15,0.15,0.15c5.403,0,14.182,2.176,13.882,6.903c-0.225,3.827-7.129,8.329-22.886,8.329c-0.075,0-0.15,0.075-0.15,0.15S9.853,18.702,9.928,18.702" />
  <path fill="#4e7ab5" d="M13.305,7.822c-1.876,0-3.677,0.3-4.202,0.375c0.525-0.75,2.626-3.677,2.626-3.677s0,0,0-0.075L11.654,4.37H5.801C4.15,6.696,3.175,8.197,2.199,10.073l-0.075,0.225v0.075c-0.15,0.15-0.15,0.3-0.075,0.525c0.6,0.9,3.902,2.026,11.256,2.026c5.478,0,11.331-0.9,11.331-2.551C24.636,8.797,18.858,7.822,13.305,7.822z M13.38,11.198c-3.377,0-5.478-0.525-5.478-0.825c0-0.375,2.101-0.825,5.478-0.825s5.478,0.45,5.478,0.825S16.757,11.198,13.38,11.198z" />
</svg>